<?xml version="1.0" encoding="UTF-8" standalone="no"?>
<!-- Created with Inkscape (http://www.inkscape.org/) -->

<svg
   xmlns:dc="http://purl.org/dc/elements/1.1/"
   xmlns:cc="http://creativecommons.org/ns#"
   xmlns:rdf="http://www.w3.org/1999/02/22-rdf-syntax-ns#"
   xmlns:svg="http://www.w3.org/2000/svg"
   xmlns="http://www.w3.org/2000/svg"
   xmlns:sodipodi="http://sodipodi.sourceforge.net/DTD/sodipodi-0.dtd"
   xmlns:inkscape="http://www.inkscape.org/namespaces/inkscape"
   width="100mm"
   height="99.999992mm"
   viewBox="0 0 99.999999 99.999993"
   version="1.1"
   id="svg8"
   sodipodi:docname="icon3.svg"
   inkscape:version="0.92.3 (2405546, 2018-03-11)">
  <defs
     id="defs2">
    <inkscape:path-effect
       effect="mirror_symmetry"
       start_point="204.86308,7.148962"
       end_point="204.86308,52.163874"
       center_point="204.86308,29.656418"
       id="path-effect1071"
       is_visible="true"
       mode="free"
       discard_orig_path="false"
       fuse_paths="false"
       oposite_fuse="false" />
    <inkscape:path-effect
       effect="mirror_symmetry"
       start_point="204.86308,14.223579"
       end_point="204.86308,47.365629"
       center_point="204.86308,30.794604"
       id="path-effect1069"
       is_visible="true"
       mode="free"
       discard_orig_path="false"
       fuse_paths="false"
       oposite_fuse="false" />
    <inkscape:path-effect
       effect="mirror_symmetry"
       start_point="204.86318,55.51772"
       end_point="204.86318,68.142604"
       center_point="204.86318,61.830162"
       id="path-effect968"
       is_visible="true"
       mode="free"
       discard_orig_path="false"
       fuse_paths="false"
       oposite_fuse="false" />
    <inkscape:path-effect
       effect="mirror_symmetry"
       start_point="334.49003,131.0495"
       end_point="210.27605,6.8355626"
       center_point="272.38304,68.942531"
       id="path-effect6315"
       is_visible="true"
       mode="free"
       discard_orig_path="false"
       fuse_paths="false"
       oposite_fuse="false" />
    <inkscape:path-effect
       effect="mirror_symmetry"
       start_point="774.28566,1152.5391"
       end_point="774.28566,1273.2872"
       center_point="774.28566,1212.9131"
       id="path-effect6233"
       is_visible="true"
       mode="free"
       discard_orig_path="false"
       fuse_paths="false"
       oposite_fuse="false" />
    <inkscape:path-effect
       effect="mirror_symmetry"
       start_point="49.999999,230.70829"
       end_point="49.999999,237.41951"
       center_point="49.999999,234.0639"
       id="path-effect6139"
       is_visible="true"
       mode="free"
       discard_orig_path="false"
       fuse_paths="false"
       oposite_fuse="false" />
    <inkscape:path-effect
       effect="spiro"
       id="path-effect6133"
       is_visible="true" />
    <inkscape:path-effect
       effect="mirror_symmetry"
       start_point="202.05576,-177.67069"
       end_point="202.05576,70.355418"
       center_point="202.05576,-53.657636"
       id="path-effect6014"
       is_visible="true"
       mode="free"
       discard_orig_path="false"
       fuse_paths="false"
       oposite_fuse="false" />
  </defs>
  <sodipodi:namedview
     id="base"
     pagecolor="#ffffff"
     bordercolor="#666666"
     borderopacity="1.0"
     inkscape:pageopacity="0.0"
     inkscape:pageshadow="2"
     inkscape:zoom="0.70710678"
     inkscape:cx="176.41102"
     inkscape:cy="200.65296"
     inkscape:document-units="mm"
     inkscape:current-layer="layer1"
     showgrid="false"
     units="mm"
     inkscape:snap-bbox="false"
     inkscape:bbox-paths="true"
     inkscape:bbox-nodes="true"
     inkscape:snap-bbox-edge-midpoints="true"
     inkscape:snap-bbox-midpoints="true"
     inkscape:object-paths="true"
     inkscape:snap-intersection-paths="true"
     showguides="true"
     inkscape:guide-bbox="true"
     inkscape:snap-smooth-nodes="true"
     inkscape:snap-midpoints="true"
     inkscape:snap-object-midpoints="true"
     inkscape:snap-center="true"
     inkscape:snap-text-baseline="true"
     inkscape:snap-page="false"
     inkscape:window-width="939"
     inkscape:window-height="1054"
     inkscape:window-x="980"
     inkscape:window-y="0"
     inkscape:window-maximized="0"
     inkscape:snap-tangential="true"
     inkscape:snap-perpendicular="true"
     inkscape:snap-others="false"
     fit-margin-top="0"
     fit-margin-left="0"
     fit-margin-right="0"
     fit-margin-bottom="0">
    <sodipodi:guide
       position="398.12469,642.08831"
       orientation="0,1"
       id="guide6018"
       inkscape:locked="false" />
    <sodipodi:guide
       position="-113.74991,526.8417"
       orientation="1,0"
       id="guide6020"
       inkscape:locked="false" />
  </sodipodi:namedview>
  <metadata
     id="metadata5">
    <rdf:RDF>
      <cc:Work
         rdf:about="">
        <dc:format>image/svg+xml</dc:format>
        <dc:type
           rdf:resource="http://purl.org/dc/dcmitype/StillImage" />
        <dc:title></dc:title>
      </cc:Work>
    </rdf:RDF>
  </metadata>
  <g
     inkscape:label="Layer 1"
     inkscape:groupmode="layer"
     id="layer1"
     transform="translate(0,-197.00001)">
    <ellipse
       style="fill:#feaae4;fill-opacity:1;stroke:none;stroke-width:0.10499729"
       id="path6109"
       cx="49.999992"
       cy="246.99997"
       rx="49.999992"
       ry="49.999962" />
    <ellipse
       style="fill:#fff7e4;fill-opacity:1;stroke:none;stroke-width:0.10499729;stroke-opacity:1"
       id="path1077"
       cx="177.90506"
       cy="139.30011"
       rx="5.0167942"
       ry="6.9176655"
       transform="rotate(44.99997)" />
    <path
       style="fill:#f98284;fill-opacity:1;stroke:none;stroke-width:0.39684018;stroke-opacity:1"
       d="M 85.551999,211.8706 A 36.260729,49.999974 45.000059 0 1 75.640209,272.64023 36.260729,49.999974 45.000059 0 1 16.556038,284.07324 49.99999,49.999972 0 0 0 49.999939,297 a 49.99999,49.999972 0 0 0 50.00006,-50.00002 49.99999,49.999972 0 0 0 -14.448,-35.12938 z m -68.995961,72.20264 a 49.99999,49.999972 0 0 1 -0.186412,-0.15381 36.260729,49.999974 45.000059 0 0 0.186412,0.15381 z"
       id="path883"
       inkscape:connector-curvature="0" />
    <path
       style="fill:#28282e;fill-opacity:1;stroke:none;stroke-width:0.10499729;stroke-opacity:1"
       d="m 21.659279,252.18708 c -3.317404,0.092 -4.030438,3.11064 -2.322452,7.30777 0.250458,0.61546 0.549729,1.2152 0.867663,1.78373 a 33.149262,33.149188 0 0 0 29.795449,18.87059 33.149262,33.149188 0 0 0 29.96956,-19.18702 c 0.25274,-0.47306 0.48948,-0.9653 0.69376,-1.4673 1.82185,-4.47695 0.88911,-7.61299 -3.02072,-7.28664 l -0.29776,0.016 a 49.999936,6.2596426 0 0 1 -27.34484,1.03542 49.999936,6.2596426 0 0 1 -27.6147,-1.04997 l -0.0277,-0.001 c -0.24436,-0.0204 -0.47711,-0.0273 -0.69827,-0.0211 z"
       id="path965"
       inkscape:connector-curvature="0" />
    <path
       style="fill:#28282e;fill-opacity:1;stroke:none;stroke-width:0.09698274px;stroke-linecap:butt;stroke-linejoin:miter;stroke-opacity:1"
       d="m 56.287229,234.94576 c 2.235143,-2.46096 5.642252,-3.7248 8.964518,-3.60348 3.322265,0.12133 6.531117,1.55501 9.044192,3.73139 0.255333,0.22112 0.50614,0.45201 0.702693,0.72671 0.196554,0.27469 0.337312,0.59846 0.347817,0.93607 0.0106,0.3406 -0.114182,0.6793 -0.322965,0.94862 -0.208784,0.26931 -0.497885,0.47107 -0.813432,0.59972 -0.631096,0.2573 -1.342535,0.22451 -2.015123,0.11445 -2.361615,-0.38643 -4.524389,-1.65947 -6.90334,-1.9186 -1.953969,-0.21284 -3.939547,0.2826 -5.70276,1.15115 -0.670176,0.33012 -1.329694,0.71918 -2.066098,0.84499 -0.368201,0.0629 -0.752708,0.0564 -1.108325,-0.0579 -0.355616,-0.11431 -0.680513,-0.34187 -0.877537,-0.65922 -0.137736,-0.22185 -0.210027,-0.48157 -0.222261,-0.74241 -0.01223,-0.26085 0.03432,-0.52277 0.120966,-0.76911 0.173287,-0.49268 0.500521,-0.91581 0.851655,-1.30242 z m -12.57446,0 c -2.235143,-2.46096 -5.642252,-3.7248 -8.964518,-3.60348 -3.322265,0.12133 -6.531117,1.55501 -9.044192,3.73139 -0.255333,0.22112 -0.50614,0.45201 -0.702693,0.72671 -0.196554,0.27469 -0.337312,0.59846 -0.347817,0.93607 -0.0106,0.3406 0.114182,0.6793 0.322965,0.94862 0.208784,0.26931 0.497885,0.47107 0.813432,0.59972 0.631096,0.2573 1.342535,0.22451 2.015123,0.11445 2.361615,-0.38643 4.524389,-1.65947 6.90334,-1.9186 1.953969,-0.21284 3.939547,0.2826 5.70276,1.15115 0.670176,0.33012 1.329694,0.71918 2.066098,0.84499 0.368201,0.0629 0.752708,0.0564 1.108325,-0.0579 0.355616,-0.11431 0.680513,-0.34187 0.877537,-0.65922 0.137736,-0.22185 0.210027,-0.48157 0.222261,-0.74241 0.01223,-0.26085 -0.03432,-0.52277 -0.120966,-0.76911 -0.173287,-0.49268 -0.500521,-0.91581 -0.851655,-1.30242 z"
       id="path6131"
       inkscape:connector-curvature="0"
       inkscape:path-effect="#path-effect6133;#path-effect6139"
       inkscape:original-d="m 56.287229,234.94576 c 0.25002,-0.93788 12.00591,0.0852 18.00871,0.12791 6.0028,0.0427 0.70045,1.10844 1.05051,1.66278 0.35006,0.55435 -2.10091,1.10843 -3.15152,1.66279 -1.05062,0.55435 -4.60213,-1.27915 -6.90334,-1.9186 -2.30122,-0.63944 -3.80174,0.76735 -5.70276,1.15115 -1.90103,0.38382 -2.70121,0.0852 -4.05196,0.12791 -1.35076,0.0427 0.50035,-1.87605 0.75036,-2.81394 z" />
    <path
       style="fill:#feaae4;fill-opacity:1;stroke:none;stroke-width:0.10499729px;stroke-linecap:butt;stroke-linejoin:miter;stroke-opacity:1"
       d="m 49.999739,268.89376 c -2.33893,5e-5 -4.49437,0.43628 -5.23346,1.35429 -0.73914,0.91806 -0.57539,1.85609 -0.3757,2.37905 0.1997,0.52294 0.61704,1.27675 5.60875,1.27679 0,0 2e-4,-2.1e-4 2e-4,-2.1e-4 l 10e-4,2.1e-4 h 2e-4 c 4.99171,-4e-5 5.40906,-0.75385 5.60875,-1.27679 0.1997,-0.52296 0.36344,-1.46099 -0.3757,-2.37905 -0.73909,-0.91801 -2.89453,-1.35424 -5.23346,-1.35429 0.0372,0 0.0732,0.001 0.10808,0.004 -0.036,-0.001 -0.0719,-0.004 -0.10808,-0.004 -1.3e-4,0 -2.7e-4,0 -4.1e-4,0 -7e-5,0 -1.3e-4,0 -2e-4,0 z"
       id="path966"
       inkscape:connector-curvature="0" />
    <path
       style="fill:none;stroke:none;stroke-width:0.26458332px;stroke-linecap:butt;stroke-linejoin:miter;stroke-opacity:1"
       d="m 282.1315,32.908319 c 4.89821,-12.036663 2.24047,-19.183826 -7.61193,-18.361448 -9.85242,0.822352 3.63718,28.128806 7.61193,18.361448 z"
       id="path1047"
       inkscape:connector-curvature="0" />
    <path
       style="fill:none;stroke:none;stroke-width:0.26458332px;stroke-linecap:butt;stroke-linejoin:miter;stroke-opacity:1"
       d="m 291.01642,33.485614 -8.88492,-0.577295 -7.61193,-18.361448 4.52319,-4.400576 19.08304,-0.982213 z"
       id="path1059"
       inkscape:connector-curvature="0" />
  </g>
</svg>
