<?xml version="1.0" encoding="utf-8" standalone="no"?>
<!DOCTYPE svg PUBLIC "-//W3C//DTD SVG 1.1//EN"
  "http://www.w3.org/Graphics/SVG/1.1/DTD/svg11.dtd">
<svg height="342pt" version="1.1" viewBox="0 0 676.08 342" width="676.08pt" xmlns="http://www.w3.org/2000/svg" xmlns:xlink="http://www.w3.org/1999/xlink">
 <metadata>
  <rdf:RDF xmlns:cc="http://creativecommons.org/ns#" xmlns:dc="http://purl.org/dc/elements/1.1/" xmlns:rdf="http://www.w3.org/1999/02/22-rdf-syntax-ns#">
   <cc:Work>
    <dc:type rdf:resource="http://purl.org/dc/dcmitype/StillImage"/>
    <dc:date>2022-11-26T03:12:49.968586</dc:date>
    <dc:format>image/svg+xml</dc:format>
    <dc:creator>
     <cc:Agent>
      <dc:title>Matplotlib v3.4.3, https://matplotlib.org/</dc:title>
     </cc:Agent>
    </dc:creator>
   </cc:Work>
  </rdf:RDF>
 </metadata>
 <defs>
  <style type="text/css">*{stroke-linecap:butt;stroke-linejoin:round;}</style>
 </defs>
 <g id="figure_1">
  <g id="patch_1">
   <path d="M 0 342 
L 676.08 342 
L 676.08 0 
L 0 0 
z
" style="fill:#dff6f5;"/>
  </g>
  <g id="axes_1">
   <g id="patch_2">
    <path d="M 84.51 304.38 
L 322.674545 304.38 
L 322.674545 41.04 
L 84.51 41.04 
z
" style="fill:#dff6f5;"/>
   </g>
   <g id="PathCollection_1">
    <defs>
     <path d="M 0 2.95804 
C 0.784481 2.95804 1.536938 2.646362 2.09165 2.09165 
C 2.646362 1.536938 2.95804 0.784481 2.95804 0 
C 2.95804 -0.784481 2.646362 -1.536938 2.09165 -2.09165 
C 1.536938 -2.646362 0.784481 -2.95804 0 -2.95804 
C -0.784481 -2.95804 -1.536938 -2.646362 -2.09165 -2.09165 
C -2.646362 -1.536938 -2.95804 -0.784481 -2.95804 0 
C -2.95804 0.784481 -2.646362 1.536938 -2.09165 2.09165 
C -1.536938 2.646362 -0.784481 2.95804 0 2.95804 
z
" id="m3b3017f7a5" style="stroke:#2ca02c;"/>
    </defs>
    <g clip-path="url(#pe13b07382e)">
     <use style="fill:#2ca02c;stroke:#2ca02c;" x="203.592273" xlink:href="#m3b3017f7a5" y="106.875"/>
    </g>
   </g>
   <g id="matplotlib.axis_1">
    <g id="xtick_1">
     <g id="line2d_1">
      <defs>
       <path d="M 0 0 
L 0 3.5 
" id="m911bbe653b" style="stroke:#000000;stroke-width:0.8;"/>
      </defs>
      <g>
       <use style="stroke:#000000;stroke-width:0.8;" x="84.51" xlink:href="#m911bbe653b" y="304.38"/>
      </g>
     </g>
     <g id="text_1">
      <!-- −6 -->
      <g transform="translate(77.138906 318.978437)scale(0.1 -0.1)">
       <defs>
        <path d="M 678 2272 
L 4684 2272 
L 4684 1741 
L 678 1741 
L 678 2272 
z
" id="DejaVuSans-2212" transform="scale(0.015625)"/>
        <path d="M 2113 2584 
Q 1688 2584 1439 2293 
Q 1191 2003 1191 1497 
Q 1191 994 1439 701 
Q 1688 409 2113 409 
Q 2538 409 2786 701 
Q 3034 994 3034 1497 
Q 3034 2003 2786 2293 
Q 2538 2584 2113 2584 
z
M 3366 4563 
L 3366 3988 
Q 3128 4100 2886 4159 
Q 2644 4219 2406 4219 
Q 1781 4219 1451 3797 
Q 1122 3375 1075 2522 
Q 1259 2794 1537 2939 
Q 1816 3084 2150 3084 
Q 2853 3084 3261 2657 
Q 3669 2231 3669 1497 
Q 3669 778 3244 343 
Q 2819 -91 2113 -91 
Q 1303 -91 875 529 
Q 447 1150 447 2328 
Q 447 3434 972 4092 
Q 1497 4750 2381 4750 
Q 2619 4750 2861 4703 
Q 3103 4656 3366 4563 
z
" id="DejaVuSans-36" transform="scale(0.015625)"/>
       </defs>
       <use xlink:href="#DejaVuSans-2212"/>
       <use x="83.789062" xlink:href="#DejaVuSans-36"/>
      </g>
     </g>
    </g>
    <g id="xtick_2">
     <g id="line2d_2">
      <g>
       <use style="stroke:#000000;stroke-width:0.8;" x="124.204091" xlink:href="#m911bbe653b" y="304.38"/>
      </g>
     </g>
     <g id="text_2">
      <!-- −4 -->
      <g transform="translate(116.832997 318.978437)scale(0.1 -0.1)">
       <defs>
        <path d="M 2419 4116 
L 825 1625 
L 2419 1625 
L 2419 4116 
z
M 2253 4666 
L 3047 4666 
L 3047 1625 
L 3713 1625 
L 3713 1100 
L 3047 1100 
L 3047 0 
L 2419 0 
L 2419 1100 
L 313 1100 
L 313 1709 
L 2253 4666 
z
" id="DejaVuSans-34" transform="scale(0.015625)"/>
       </defs>
       <use xlink:href="#DejaVuSans-2212"/>
       <use x="83.789062" xlink:href="#DejaVuSans-34"/>
      </g>
     </g>
    </g>
    <g id="xtick_3">
     <g id="line2d_3">
      <g>
       <use style="stroke:#000000;stroke-width:0.8;" x="163.898182" xlink:href="#m911bbe653b" y="304.38"/>
      </g>
     </g>
     <g id="text_3">
      <!-- −2 -->
      <g transform="translate(156.527088 318.978437)scale(0.1 -0.1)">
       <defs>
        <path d="M 1228 531 
L 3431 531 
L 3431 0 
L 469 0 
L 469 531 
Q 828 903 1448 1529 
Q 2069 2156 2228 2338 
Q 2531 2678 2651 2914 
Q 2772 3150 2772 3378 
Q 2772 3750 2511 3984 
Q 2250 4219 1831 4219 
Q 1534 4219 1204 4116 
Q 875 4013 500 3803 
L 500 4441 
Q 881 4594 1212 4672 
Q 1544 4750 1819 4750 
Q 2544 4750 2975 4387 
Q 3406 4025 3406 3419 
Q 3406 3131 3298 2873 
Q 3191 2616 2906 2266 
Q 2828 2175 2409 1742 
Q 1991 1309 1228 531 
z
" id="DejaVuSans-32" transform="scale(0.015625)"/>
       </defs>
       <use xlink:href="#DejaVuSans-2212"/>
       <use x="83.789062" xlink:href="#DejaVuSans-32"/>
      </g>
     </g>
    </g>
    <g id="xtick_4">
     <g id="line2d_4">
      <g>
       <use style="stroke:#000000;stroke-width:0.8;" x="203.592273" xlink:href="#m911bbe653b" y="304.38"/>
      </g>
     </g>
     <g id="text_4">
      <!-- 0 -->
      <g transform="translate(200.411023 318.978437)scale(0.1 -0.1)">
       <defs>
        <path d="M 2034 4250 
Q 1547 4250 1301 3770 
Q 1056 3291 1056 2328 
Q 1056 1369 1301 889 
Q 1547 409 2034 409 
Q 2525 409 2770 889 
Q 3016 1369 3016 2328 
Q 3016 3291 2770 3770 
Q 2525 4250 2034 4250 
z
M 2034 4750 
Q 2819 4750 3233 4129 
Q 3647 3509 3647 2328 
Q 3647 1150 3233 529 
Q 2819 -91 2034 -91 
Q 1250 -91 836 529 
Q 422 1150 422 2328 
Q 422 3509 836 4129 
Q 1250 4750 2034 4750 
z
" id="DejaVuSans-30" transform="scale(0.015625)"/>
       </defs>
       <use xlink:href="#DejaVuSans-30"/>
      </g>
     </g>
    </g>
    <g id="xtick_5">
     <g id="line2d_5">
      <g>
       <use style="stroke:#000000;stroke-width:0.8;" x="243.286364" xlink:href="#m911bbe653b" y="304.38"/>
      </g>
     </g>
     <g id="text_5">
      <!-- 2 -->
      <g transform="translate(240.105114 318.978437)scale(0.1 -0.1)">
       <use xlink:href="#DejaVuSans-32"/>
      </g>
     </g>
    </g>
    <g id="xtick_6">
     <g id="line2d_6">
      <g>
       <use style="stroke:#000000;stroke-width:0.8;" x="282.980455" xlink:href="#m911bbe653b" y="304.38"/>
      </g>
     </g>
     <g id="text_6">
      <!-- 4 -->
      <g transform="translate(279.799205 318.978437)scale(0.1 -0.1)">
       <use xlink:href="#DejaVuSans-34"/>
      </g>
     </g>
    </g>
    <g id="xtick_7">
     <g id="line2d_7">
      <g>
       <use style="stroke:#000000;stroke-width:0.8;" x="322.674545" xlink:href="#m911bbe653b" y="304.38"/>
      </g>
     </g>
     <g id="text_7">
      <!-- 6 -->
      <g transform="translate(319.493295 318.978437)scale(0.1 -0.1)">
       <use xlink:href="#DejaVuSans-36"/>
      </g>
     </g>
    </g>
    <g id="text_8">
     <!-- x -->
     <g transform="translate(200.632898 332.656563)scale(0.1 -0.1)">
      <defs>
       <path d="M 3513 3500 
L 2247 1797 
L 3578 0 
L 2900 0 
L 1881 1375 
L 863 0 
L 184 0 
L 1544 1831 
L 300 3500 
L 978 3500 
L 1906 2253 
L 2834 3500 
L 3513 3500 
z
" id="DejaVuSans-78" transform="scale(0.015625)"/>
      </defs>
      <use xlink:href="#DejaVuSans-78"/>
     </g>
    </g>
   </g>
   <g id="matplotlib.axis_2">
    <g id="ytick_1">
     <g id="line2d_8">
      <defs>
       <path d="M 0 0 
L -3.5 0 
" id="m1828f84268" style="stroke:#000000;stroke-width:0.8;"/>
      </defs>
      <g>
       <use style="stroke:#000000;stroke-width:0.8;" x="84.51" xlink:href="#m1828f84268" y="304.38"/>
      </g>
     </g>
     <g id="text_9">
      <!-- −6 -->
      <g transform="translate(62.767813 308.179219)scale(0.1 -0.1)">
       <use xlink:href="#DejaVuSans-2212"/>
       <use x="83.789062" xlink:href="#DejaVuSans-36"/>
      </g>
     </g>
    </g>
    <g id="ytick_2">
     <g id="line2d_9">
      <g>
       <use style="stroke:#000000;stroke-width:0.8;" x="84.51" xlink:href="#m1828f84268" y="260.49"/>
      </g>
     </g>
     <g id="text_10">
      <!-- −4 -->
      <g transform="translate(62.767813 264.289219)scale(0.1 -0.1)">
       <use xlink:href="#DejaVuSans-2212"/>
       <use x="83.789062" xlink:href="#DejaVuSans-34"/>
      </g>
     </g>
    </g>
    <g id="ytick_3">
     <g id="line2d_10">
      <g>
       <use style="stroke:#000000;stroke-width:0.8;" x="84.51" xlink:href="#m1828f84268" y="216.6"/>
      </g>
     </g>
     <g id="text_11">
      <!-- −2 -->
      <g transform="translate(62.767813 220.399219)scale(0.1 -0.1)">
       <use xlink:href="#DejaVuSans-2212"/>
       <use x="83.789062" xlink:href="#DejaVuSans-32"/>
      </g>
     </g>
    </g>
    <g id="ytick_4">
     <g id="line2d_11">
      <g>
       <use style="stroke:#000000;stroke-width:0.8;" x="84.51" xlink:href="#m1828f84268" y="172.71"/>
      </g>
     </g>
     <g id="text_12">
      <!-- 0 -->
      <g transform="translate(71.1475 176.509219)scale(0.1 -0.1)">
       <use xlink:href="#DejaVuSans-30"/>
      </g>
     </g>
    </g>
    <g id="ytick_5">
     <g id="line2d_12">
      <g>
       <use style="stroke:#000000;stroke-width:0.8;" x="84.51" xlink:href="#m1828f84268" y="128.82"/>
      </g>
     </g>
     <g id="text_13">
      <!-- 2 -->
      <g transform="translate(71.1475 132.619219)scale(0.1 -0.1)">
       <use xlink:href="#DejaVuSans-32"/>
      </g>
     </g>
    </g>
    <g id="ytick_6">
     <g id="line2d_13">
      <g>
       <use style="stroke:#000000;stroke-width:0.8;" x="84.51" xlink:href="#m1828f84268" y="84.93"/>
      </g>
     </g>
     <g id="text_14">
      <!-- 4 -->
      <g transform="translate(71.1475 88.729219)scale(0.1 -0.1)">
       <use xlink:href="#DejaVuSans-34"/>
      </g>
     </g>
    </g>
    <g id="ytick_7">
     <g id="line2d_14">
      <g>
       <use style="stroke:#000000;stroke-width:0.8;" x="84.51" xlink:href="#m1828f84268" y="41.04"/>
      </g>
     </g>
     <g id="text_15">
      <!-- 6 -->
      <g transform="translate(71.1475 44.839219)scale(0.1 -0.1)">
       <use xlink:href="#DejaVuSans-36"/>
      </g>
     </g>
    </g>
    <g id="text_16">
     <!-- y -->
     <g transform="translate(56.688125 175.669375)rotate(-90)scale(0.1 -0.1)">
      <defs>
       <path d="M 2059 -325 
Q 1816 -950 1584 -1140 
Q 1353 -1331 966 -1331 
L 506 -1331 
L 506 -850 
L 844 -850 
Q 1081 -850 1212 -737 
Q 1344 -625 1503 -206 
L 1606 56 
L 191 3500 
L 800 3500 
L 1894 763 
L 2988 3500 
L 3597 3500 
L 2059 -325 
z
" id="DejaVuSans-79" transform="scale(0.015625)"/>
      </defs>
      <use xlink:href="#DejaVuSans-79"/>
     </g>
    </g>
   </g>
   <g id="line2d_15">
    <path clip-path="url(#pe13b07382e)" d="M 84.51 175.775887 
L 94.046118 180.958864 
L 98.337371 183.018946 
L 101.913415 184.491752 
L 105.012654 185.537368 
L 107.873489 186.277564 
L 110.495921 186.741943 
L 113.118354 186.981525 
L 115.502383 186.989795 
L 117.886413 186.787007 
L 120.270442 186.363939 
L 122.654472 185.713379 
L 125.038501 184.830245 
L 127.422531 183.711691 
L 129.80656 182.357182 
L 132.428993 180.596951 
L 135.051425 178.559266 
L 137.91226 176.030915 
L 140.773096 173.20026 
L 143.872334 169.817654 
L 147.209975 165.844831 
L 151.024423 160.947574 
L 155.554079 154.750897 
L 162.229361 145.191361 
L 170.573464 133.308218 
L 174.864717 127.57206 
L 178.440762 123.134407 
L 181.54 119.609268 
L 184.400835 116.665456 
L 187.023268 114.260167 
L 189.6457 112.160914 
L 192.02973 110.536404 
L 194.413759 109.196738 
L 196.559386 108.24416 
L 198.705012 107.538328 
L 200.850639 107.084179 
L 202.757862 106.894393 
L 204.665086 106.907055 
L 206.57231 107.122097 
L 208.717936 107.6044 
L 210.863563 108.337924 
L 213.009189 109.317539 
L 215.154816 110.536404 
L 217.538845 112.160914 
L 219.922875 114.05633 
L 222.545307 116.434778 
L 225.406143 119.352018 
L 228.505381 122.851906 
L 231.843022 126.96018 
L 235.895872 132.326862 
L 241.140737 139.690044 
L 255.206511 159.672956 
L 259.259361 164.953438 
L 262.835405 169.270059 
L 266.173047 172.951367 
L 269.272285 176.030915 
L 272.13312 178.559266 
L 274.755553 180.596951 
L 277.377985 182.357182 
L 280.000418 183.834174 
L 282.384447 184.929123 
L 284.768477 185.788834 
L 287.152506 186.41638 
L 289.536536 186.817061 
L 291.920565 186.998296 
L 294.304595 186.969501 
L 296.927027 186.70874 
L 299.549459 186.224854 
L 302.410295 185.4655 
L 305.509533 184.401857 
L 308.847174 183.018946 
L 312.900025 181.079971 
L 318.144889 178.292399 
L 322.674545 175.775887 
L 322.674545 175.775887 
" style="fill:none;stroke:#2ca02c;stroke-linecap:square;stroke-width:1.5;"/>
   </g>
   <g id="line2d_16">
    <path clip-path="url(#pe13b07382e)" d="M 183.924029 170.627073 
L 184.400835 168.721498 
L 185.116044 166.942636 
L 186.069656 165.199899 
L 187.261671 163.472819 
L 188.930491 161.493094 
L 190.837715 159.591416 
L 193.221744 157.546061 
L 196.08258 155.407907 
L 199.420221 153.207453 
L 203.234668 150.963601 
L 207.764324 148.568403 
L 213.009189 146.062638 
L 218.969263 143.474723 
L 225.644545 140.824654 
L 233.27344 138.043182 
L 241.855946 135.159495 
L 251.392064 132.195415 
L 262.120197 129.100978 
L 274.040344 125.902032 
L 287.152506 122.618596 
L 301.695086 119.212145 
L 317.668084 115.70473 
L 322.674545 114.648987 
L 322.674545 114.648987 
" style="fill:none;stroke:#9467bd;stroke-linecap:square;stroke-width:1.5;"/>
   </g>
   <g id="patch_3">
    <path d="M 84.51 304.38 
L 84.51 41.04 
" style="fill:none;stroke:#000000;stroke-linecap:square;stroke-linejoin:miter;stroke-width:0.8;"/>
   </g>
   <g id="patch_4">
    <path d="M 322.674545 304.38 
L 322.674545 41.04 
" style="fill:none;stroke:#000000;stroke-linecap:square;stroke-linejoin:miter;stroke-width:0.8;"/>
   </g>
   <g id="patch_5">
    <path d="M 84.51 304.38 
L 322.674545 304.38 
" style="fill:none;stroke:#000000;stroke-linecap:square;stroke-linejoin:miter;stroke-width:0.8;"/>
   </g>
   <g id="patch_6">
    <path d="M 84.51 41.04 
L 322.674545 41.04 
" style="fill:none;stroke:#000000;stroke-linecap:square;stroke-linejoin:miter;stroke-width:0.8;"/>
   </g>
   <g id="text_17">
    <!-- F and G -->
    <g transform="translate(180.390085 35.04)scale(0.12 -0.12)">
     <defs>
      <path d="M 628 4666 
L 3309 4666 
L 3309 4134 
L 1259 4134 
L 1259 2759 
L 3109 2759 
L 3109 2228 
L 1259 2228 
L 1259 0 
L 628 0 
L 628 4666 
z
" id="DejaVuSans-46" transform="scale(0.015625)"/>
      <path id="DejaVuSans-20" transform="scale(0.015625)"/>
      <path d="M 2194 1759 
Q 1497 1759 1228 1600 
Q 959 1441 959 1056 
Q 959 750 1161 570 
Q 1363 391 1709 391 
Q 2188 391 2477 730 
Q 2766 1069 2766 1631 
L 2766 1759 
L 2194 1759 
z
M 3341 1997 
L 3341 0 
L 2766 0 
L 2766 531 
Q 2569 213 2275 61 
Q 1981 -91 1556 -91 
Q 1019 -91 701 211 
Q 384 513 384 1019 
Q 384 1609 779 1909 
Q 1175 2209 1959 2209 
L 2766 2209 
L 2766 2266 
Q 2766 2663 2505 2880 
Q 2244 3097 1772 3097 
Q 1472 3097 1187 3025 
Q 903 2953 641 2809 
L 641 3341 
Q 956 3463 1253 3523 
Q 1550 3584 1831 3584 
Q 2591 3584 2966 3190 
Q 3341 2797 3341 1997 
z
" id="DejaVuSans-61" transform="scale(0.015625)"/>
      <path d="M 3513 2113 
L 3513 0 
L 2938 0 
L 2938 2094 
Q 2938 2591 2744 2837 
Q 2550 3084 2163 3084 
Q 1697 3084 1428 2787 
Q 1159 2491 1159 1978 
L 1159 0 
L 581 0 
L 581 3500 
L 1159 3500 
L 1159 2956 
Q 1366 3272 1645 3428 
Q 1925 3584 2291 3584 
Q 2894 3584 3203 3211 
Q 3513 2838 3513 2113 
z
" id="DejaVuSans-6e" transform="scale(0.015625)"/>
      <path d="M 2906 2969 
L 2906 4863 
L 3481 4863 
L 3481 0 
L 2906 0 
L 2906 525 
Q 2725 213 2448 61 
Q 2172 -91 1784 -91 
Q 1150 -91 751 415 
Q 353 922 353 1747 
Q 353 2572 751 3078 
Q 1150 3584 1784 3584 
Q 2172 3584 2448 3432 
Q 2725 3281 2906 2969 
z
M 947 1747 
Q 947 1113 1208 752 
Q 1469 391 1925 391 
Q 2381 391 2643 752 
Q 2906 1113 2906 1747 
Q 2906 2381 2643 2742 
Q 2381 3103 1925 3103 
Q 1469 3103 1208 2742 
Q 947 2381 947 1747 
z
" id="DejaVuSans-64" transform="scale(0.015625)"/>
      <path d="M 3809 666 
L 3809 1919 
L 2778 1919 
L 2778 2438 
L 4434 2438 
L 4434 434 
Q 4069 175 3628 42 
Q 3188 -91 2688 -91 
Q 1594 -91 976 548 
Q 359 1188 359 2328 
Q 359 3472 976 4111 
Q 1594 4750 2688 4750 
Q 3144 4750 3555 4637 
Q 3966 4525 4313 4306 
L 4313 3634 
Q 3963 3931 3569 4081 
Q 3175 4231 2741 4231 
Q 1884 4231 1454 3753 
Q 1025 3275 1025 2328 
Q 1025 1384 1454 906 
Q 1884 428 2741 428 
Q 3075 428 3337 486 
Q 3600 544 3809 666 
z
" id="DejaVuSans-47" transform="scale(0.015625)"/>
     </defs>
     <use xlink:href="#DejaVuSans-46"/>
     <use x="57.519531" xlink:href="#DejaVuSans-20"/>
     <use x="89.306641" xlink:href="#DejaVuSans-61"/>
     <use x="150.585938" xlink:href="#DejaVuSans-6e"/>
     <use x="213.964844" xlink:href="#DejaVuSans-64"/>
     <use x="277.441406" xlink:href="#DejaVuSans-20"/>
     <use x="309.228516" xlink:href="#DejaVuSans-47"/>
    </g>
   </g>
   <g id="legend_1">
    <g id="patch_7">
     <path d="M 275.926108 78.39625 
L 315.674545 78.39625 
Q 317.674545 78.39625 317.674545 76.39625 
L 317.674545 48.04 
Q 317.674545 46.04 315.674545 46.04 
L 275.926108 46.04 
Q 273.926108 46.04 273.926108 48.04 
L 273.926108 76.39625 
Q 273.926108 78.39625 275.926108 78.39625 
z
" style="fill:#dff6f5;opacity:0.8;stroke:#cccccc;stroke-linejoin:miter;"/>
    </g>
    <g id="line2d_17">
     <path d="M 277.926108 54.138438 
L 297.926108 54.138438 
" style="fill:none;stroke:#2ca02c;stroke-linecap:square;stroke-width:1.5;"/>
    </g>
    <g id="line2d_18"/>
    <g id="text_18">
     <!-- F -->
     <g transform="translate(305.926108 57.638438)scale(0.1 -0.1)">
      <use xlink:href="#DejaVuSans-46"/>
     </g>
    </g>
    <g id="line2d_19">
     <path d="M 277.926108 68.816563 
L 297.926108 68.816563 
" style="fill:none;stroke:#9467bd;stroke-linecap:square;stroke-width:1.5;"/>
    </g>
    <g id="line2d_20"/>
    <g id="text_19">
     <!-- G -->
     <g transform="translate(305.926108 72.316563)scale(0.1 -0.1)">
      <use xlink:href="#DejaVuSans-47"/>
     </g>
    </g>
   </g>
   <g id="PathCollection_2">
    <defs>
     <path d="M 0 1.581139 
C 0.419323 1.581139 0.821528 1.41454 1.118034 1.118034 
C 1.41454 0.821528 1.581139 0.419323 1.581139 0 
C 1.581139 -0.419323 1.41454 -0.821528 1.118034 -1.118034 
C 0.821528 -1.41454 0.419323 -1.581139 0 -1.581139 
C -0.419323 -1.581139 -0.821528 -1.41454 -1.118034 -1.118034 
C -1.41454 -0.821528 -1.581139 -0.419323 -1.581139 0 
C -1.581139 0.419323 -1.41454 0.821528 -1.118034 1.118034 
C -0.821528 1.41454 -0.419323 1.581139 0 1.581139 
z
" id="ma24a7c3a4f" style="stroke:#dff6f5;"/>
    </defs>
    <g clip-path="url(#pe13b07382e)">
     <use style="fill:#dff6f5;stroke:#dff6f5;" x="203.592273" xlink:href="#ma24a7c3a4f" y="106.875"/>
    </g>
   </g>
  </g>
  <g id="axes_2">
   <g id="patch_8">
    <path d="M 370.307455 304.38 
L 608.472 304.38 
L 608.472 41.04 
L 370.307455 41.04 
z
" style="fill:#dff6f5;"/>
   </g>
   <g id="PathCollection_3">
    <defs>
     <path d="M 0 2.95804 
C 0.784481 2.95804 1.536938 2.646362 2.09165 2.09165 
C 2.646362 1.536938 2.95804 0.784481 2.95804 0 
C 2.95804 -0.784481 2.646362 -1.536938 2.09165 -2.09165 
C 1.536938 -2.646362 0.784481 -2.95804 0 -2.95804 
C -0.784481 -2.95804 -1.536938 -2.646362 -2.09165 -2.09165 
C -2.646362 -1.536938 -2.95804 -0.784481 -2.95804 0 
C -2.95804 0.784481 -2.646362 1.536938 -2.09165 2.09165 
C -1.536938 2.646362 -0.784481 2.95804 0 2.95804 
z
" id="m8e4523414f" style="stroke:#ff7f0e;"/>
    </defs>
    <g clip-path="url(#pf779ff0241)">
     <use style="fill:#ff7f0e;stroke:#ff7f0e;" x="489.389727" xlink:href="#m8e4523414f" y="106.875"/>
    </g>
   </g>
   <g id="PathCollection_4">
    <g clip-path="url(#pf779ff0241)">
     <use style="fill:#ff7f0e;stroke:#ff7f0e;" x="489.389727" xlink:href="#m8e4523414f" y="150.765"/>
    </g>
   </g>
   <g id="matplotlib.axis_3">
    <g id="xtick_8">
     <g id="line2d_21">
      <g>
       <use style="stroke:#000000;stroke-width:0.8;" x="370.307455" xlink:href="#m911bbe653b" y="304.38"/>
      </g>
     </g>
     <g id="text_20">
      <!-- −6 -->
      <g transform="translate(362.936361 318.978437)scale(0.1 -0.1)">
       <use xlink:href="#DejaVuSans-2212"/>
       <use x="83.789062" xlink:href="#DejaVuSans-36"/>
      </g>
     </g>
    </g>
    <g id="xtick_9">
     <g id="line2d_22">
      <g>
       <use style="stroke:#000000;stroke-width:0.8;" x="410.001545" xlink:href="#m911bbe653b" y="304.38"/>
      </g>
     </g>
     <g id="text_21">
      <!-- −4 -->
      <g transform="translate(402.630452 318.978437)scale(0.1 -0.1)">
       <use xlink:href="#DejaVuSans-2212"/>
       <use x="83.789062" xlink:href="#DejaVuSans-34"/>
      </g>
     </g>
    </g>
    <g id="xtick_10">
     <g id="line2d_23">
      <g>
       <use style="stroke:#000000;stroke-width:0.8;" x="449.695636" xlink:href="#m911bbe653b" y="304.38"/>
      </g>
     </g>
     <g id="text_22">
      <!-- −2 -->
      <g transform="translate(442.324543 318.978437)scale(0.1 -0.1)">
       <use xlink:href="#DejaVuSans-2212"/>
       <use x="83.789062" xlink:href="#DejaVuSans-32"/>
      </g>
     </g>
    </g>
    <g id="xtick_11">
     <g id="line2d_24">
      <g>
       <use style="stroke:#000000;stroke-width:0.8;" x="489.389727" xlink:href="#m911bbe653b" y="304.38"/>
      </g>
     </g>
     <g id="text_23">
      <!-- 0 -->
      <g transform="translate(486.208477 318.978437)scale(0.1 -0.1)">
       <use xlink:href="#DejaVuSans-30"/>
      </g>
     </g>
    </g>
    <g id="xtick_12">
     <g id="line2d_25">
      <g>
       <use style="stroke:#000000;stroke-width:0.8;" x="529.083818" xlink:href="#m911bbe653b" y="304.38"/>
      </g>
     </g>
     <g id="text_24">
      <!-- 2 -->
      <g transform="translate(525.902568 318.978437)scale(0.1 -0.1)">
       <use xlink:href="#DejaVuSans-32"/>
      </g>
     </g>
    </g>
    <g id="xtick_13">
     <g id="line2d_26">
      <g>
       <use style="stroke:#000000;stroke-width:0.8;" x="568.777909" xlink:href="#m911bbe653b" y="304.38"/>
      </g>
     </g>
     <g id="text_25">
      <!-- 4 -->
      <g transform="translate(565.596659 318.978437)scale(0.1 -0.1)">
       <use xlink:href="#DejaVuSans-34"/>
      </g>
     </g>
    </g>
    <g id="xtick_14">
     <g id="line2d_27">
      <g>
       <use style="stroke:#000000;stroke-width:0.8;" x="608.472" xlink:href="#m911bbe653b" y="304.38"/>
      </g>
     </g>
     <g id="text_26">
      <!-- 6 -->
      <g transform="translate(605.29075 318.978437)scale(0.1 -0.1)">
       <use xlink:href="#DejaVuSans-36"/>
      </g>
     </g>
    </g>
    <g id="text_27">
     <!-- x -->
     <g transform="translate(486.430352 332.656563)scale(0.1 -0.1)">
      <use xlink:href="#DejaVuSans-78"/>
     </g>
    </g>
   </g>
   <g id="matplotlib.axis_4">
    <g id="ytick_8">
     <g id="line2d_28">
      <g>
       <use style="stroke:#000000;stroke-width:0.8;" x="370.307455" xlink:href="#m1828f84268" y="304.38"/>
      </g>
     </g>
     <g id="text_28">
      <!-- −6 -->
      <g transform="translate(348.565267 308.179219)scale(0.1 -0.1)">
       <use xlink:href="#DejaVuSans-2212"/>
       <use x="83.789062" xlink:href="#DejaVuSans-36"/>
      </g>
     </g>
    </g>
    <g id="ytick_9">
     <g id="line2d_29">
      <g>
       <use style="stroke:#000000;stroke-width:0.8;" x="370.307455" xlink:href="#m1828f84268" y="260.49"/>
      </g>
     </g>
     <g id="text_29">
      <!-- −4 -->
      <g transform="translate(348.565267 264.289219)scale(0.1 -0.1)">
       <use xlink:href="#DejaVuSans-2212"/>
       <use x="83.789062" xlink:href="#DejaVuSans-34"/>
      </g>
     </g>
    </g>
    <g id="ytick_10">
     <g id="line2d_30">
      <g>
       <use style="stroke:#000000;stroke-width:0.8;" x="370.307455" xlink:href="#m1828f84268" y="216.6"/>
      </g>
     </g>
     <g id="text_30">
      <!-- −2 -->
      <g transform="translate(348.565267 220.399219)scale(0.1 -0.1)">
       <use xlink:href="#DejaVuSans-2212"/>
       <use x="83.789062" xlink:href="#DejaVuSans-32"/>
      </g>
     </g>
    </g>
    <g id="ytick_11">
     <g id="line2d_31">
      <g>
       <use style="stroke:#000000;stroke-width:0.8;" x="370.307455" xlink:href="#m1828f84268" y="172.71"/>
      </g>
     </g>
     <g id="text_31">
      <!-- 0 -->
      <g transform="translate(356.944955 176.509219)scale(0.1 -0.1)">
       <use xlink:href="#DejaVuSans-30"/>
      </g>
     </g>
    </g>
    <g id="ytick_12">
     <g id="line2d_32">
      <g>
       <use style="stroke:#000000;stroke-width:0.8;" x="370.307455" xlink:href="#m1828f84268" y="128.82"/>
      </g>
     </g>
     <g id="text_32">
      <!-- 2 -->
      <g transform="translate(356.944955 132.619219)scale(0.1 -0.1)">
       <use xlink:href="#DejaVuSans-32"/>
      </g>
     </g>
    </g>
    <g id="ytick_13">
     <g id="line2d_33">
      <g>
       <use style="stroke:#000000;stroke-width:0.8;" x="370.307455" xlink:href="#m1828f84268" y="84.93"/>
      </g>
     </g>
     <g id="text_33">
      <!-- 4 -->
      <g transform="translate(356.944955 88.729219)scale(0.1 -0.1)">
       <use xlink:href="#DejaVuSans-34"/>
      </g>
     </g>
    </g>
    <g id="ytick_14">
     <g id="line2d_34">
      <g>
       <use style="stroke:#000000;stroke-width:0.8;" x="370.307455" xlink:href="#m1828f84268" y="41.04"/>
      </g>
     </g>
     <g id="text_34">
      <!-- 6 -->
      <g transform="translate(356.944955 44.839219)scale(0.1 -0.1)">
       <use xlink:href="#DejaVuSans-36"/>
      </g>
     </g>
    </g>
    <g id="text_35">
     <!-- y -->
     <g transform="translate(342.48558 175.669375)rotate(-90)scale(0.1 -0.1)">
      <use xlink:href="#DejaVuSans-79"/>
     </g>
    </g>
   </g>
   <g id="line2d_35">
    <path clip-path="url(#pf779ff0241)" d="M 469.721484 117.133772 
L 472.343916 114.675416 
L 474.966349 112.518811 
L 477.350378 110.83893 
L 479.734408 109.441295 
L 481.880034 108.434728 
L 484.025661 107.673575 
L 486.171287 107.16316 
L 488.078511 106.922881 
L 489.985735 106.884895 
L 491.892958 107.04941 
L 493.800182 107.415516 
L 495.945808 108.065783 
L 498.091435 108.964045 
L 500.237061 110.104023 
L 502.621091 111.644436 
L 505.00512 113.460182 
L 507.627553 115.756897 
L 510.249985 118.344224 
L 513.110821 121.466937 
L 516.448462 125.456506 
L 520.262909 130.392415 
L 524.792565 136.63647 
L 532.659862 147.948398 
L 539.573548 157.728996 
L 544.103204 163.744783 
L 547.917651 168.4358 
L 551.255292 172.193117 
L 554.354531 175.350831 
L 557.215366 177.956519 
L 559.837799 180.068407 
L 562.460231 181.905029 
L 565.082663 183.459641 
L 567.466693 184.625418 
L 569.850722 185.555482 
L 572.234752 186.25222 
L 574.618781 186.720276 
L 577.002811 186.966445 
L 579.38684 186.999557 
L 582.009273 186.802756 
L 584.631705 186.377872 
L 587.492541 185.676567 
L 590.591779 184.667682 
L 593.92942 183.333615 
L 597.743867 181.557395 
L 602.511926 179.073648 
L 608.472 175.775887 
L 608.472 175.775887 
" style="fill:none;stroke:#ff7f0e;stroke-linecap:square;stroke-width:1.5;"/>
   </g>
   <g id="line2d_36">
    <path clip-path="url(#pf779ff0241)" d="M 469.721484 170.627073 
L 470.19829 168.721498 
L 470.913499 166.942636 
L 471.867111 165.199899 
L 473.059125 163.472819 
L 474.727946 161.493094 
L 476.63517 159.591416 
L 479.019199 157.546061 
L 481.880034 155.407907 
L 485.217676 153.207453 
L 489.032123 150.963601 
L 493.561779 148.568403 
L 498.806644 146.062638 
L 504.766717 143.474723 
L 511.442 140.824654 
L 519.070894 138.043182 
L 527.6534 135.159495 
L 537.189518 132.195415 
L 547.917651 129.100978 
L 559.837799 125.902032 
L 572.949961 122.618596 
L 587.492541 119.212145 
L 603.465538 115.70473 
L 608.472 114.648987 
L 608.472 114.648987 
" style="fill:none;stroke:#ff7f0e;stroke-linecap:square;stroke-width:1.5;"/>
   </g>
   <g id="patch_9">
    <path d="M 370.307455 304.38 
L 370.307455 41.04 
" style="fill:none;stroke:#000000;stroke-linecap:square;stroke-linejoin:miter;stroke-width:0.8;"/>
   </g>
   <g id="patch_10">
    <path d="M 608.472 304.38 
L 608.472 41.04 
" style="fill:none;stroke:#000000;stroke-linecap:square;stroke-linejoin:miter;stroke-width:0.8;"/>
   </g>
   <g id="patch_11">
    <path d="M 370.307455 304.38 
L 608.472 304.38 
" style="fill:none;stroke:#000000;stroke-linecap:square;stroke-linejoin:miter;stroke-width:0.8;"/>
   </g>
   <g id="patch_12">
    <path d="M 370.307455 41.04 
L 608.472 41.04 
" style="fill:none;stroke:#000000;stroke-linecap:square;stroke-linejoin:miter;stroke-width:0.8;"/>
   </g>
   <g id="text_36">
    <!-- Q -->
    <g transform="translate(484.666602 35.04)scale(0.12 -0.12)">
     <defs>
      <path d="M 2522 4238 
Q 1834 4238 1429 3725 
Q 1025 3213 1025 2328 
Q 1025 1447 1429 934 
Q 1834 422 2522 422 
Q 3209 422 3611 934 
Q 4013 1447 4013 2328 
Q 4013 3213 3611 3725 
Q 3209 4238 2522 4238 
z
M 3406 84 
L 4238 -825 
L 3475 -825 
L 2784 -78 
Q 2681 -84 2626 -87 
Q 2572 -91 2522 -91 
Q 1538 -91 948 567 
Q 359 1225 359 2328 
Q 359 3434 948 4092 
Q 1538 4750 2522 4750 
Q 3503 4750 4090 4092 
Q 4678 3434 4678 2328 
Q 4678 1516 4351 937 
Q 4025 359 3406 84 
z
" id="DejaVuSans-51" transform="scale(0.015625)"/>
     </defs>
     <use xlink:href="#DejaVuSans-51"/>
    </g>
   </g>
   <g id="legend_2">
    <g id="patch_13">
     <path d="M 561.600125 63.718125 
L 601.472 63.718125 
Q 603.472 63.718125 603.472 61.718125 
L 603.472 48.04 
Q 603.472 46.04 601.472 46.04 
L 561.600125 46.04 
Q 559.600125 46.04 559.600125 48.04 
L 559.600125 61.718125 
Q 559.600125 63.718125 561.600125 63.718125 
z
" style="fill:#dff6f5;opacity:0.8;stroke:#cccccc;stroke-linejoin:miter;"/>
    </g>
    <g id="line2d_37">
     <path d="M 563.600125 54.138438 
L 583.600125 54.138438 
" style="fill:none;stroke:#ff7f0e;stroke-linecap:square;stroke-width:1.5;"/>
    </g>
    <g id="line2d_38"/>
    <g id="text_37">
     <!-- Q -->
     <g transform="translate(591.600125 57.638438)scale(0.1 -0.1)">
      <use xlink:href="#DejaVuSans-51"/>
     </g>
    </g>
   </g>
   <g id="PathCollection_5">
    <g clip-path="url(#pf779ff0241)">
     <use style="fill:#dff6f5;stroke:#dff6f5;" x="489.389727" xlink:href="#ma24a7c3a4f" y="106.875"/>
    </g>
   </g>
   <g id="PathCollection_6">
    <g clip-path="url(#pf779ff0241)">
     <use style="fill:#dff6f5;stroke:#dff6f5;" x="489.389727" xlink:href="#ma24a7c3a4f" y="150.765"/>
    </g>
   </g>
  </g>
 </g>
 <defs>
  <clipPath id="pe13b07382e">
   <rect height="263.34" width="238.164545" x="84.51" y="41.04"/>
  </clipPath>
  <clipPath id="pf779ff0241">
   <rect height="263.34" width="238.164545" x="370.307455" y="41.04"/>
  </clipPath>
 </defs>
</svg>
